<svg width="601" height="444" viewBox="0 0 601 444" fill="none" xmlns="http://www.w3.org/2000/svg">
  <defs>
    <clipPath id="courtClip">
      <rect x="0" y="0" width="601" height="444"/>
    </clipPath>
  </defs>
  <g clipPath="url(#courtClip)">
    <path d="M433.442 444L433.442 37.4551L407.52 37.4551V160.335L407.437 160.46C392.196 197.715 366.519 229.465 333.181 252.28C299.019 275.658 258.996 288.016 217.44 288.016C175.883 288.016 135.858 275.658 101.695 252.278C68.3353 229.447 42.6491 197.672 27.4131 160.386L27.3604 160.255V37.4551H1.44043L1.44043 442.806L165.604 442.806C165.992 414.556 189.095 391.695 217.438 391.695C245.78 391.696 268.883 414.556 269.271 442.806H433.438V444L0 444L0 36.0146L434.882 36.0146L434.882 444H433.442ZM313.921 37.4551V41.7754H312.481V37.4551L286.559 37.4551V97.915H290.877V99.3555H286.559V105.137H290.877V106.577H286.559V132.474H290.877V133.914H286.559L286.559 159.812H290.877V161.252H286.559V201.615H269.275C269.263 202.545 269.226 203.473 269.164 204.396L269.16 204.396C268.66 211.857 266.574 218.891 263.237 225.163C263.1 225.422 262.961 225.679 262.819 225.936L262.818 225.935C260.984 229.247 258.795 232.336 256.307 235.155L256.323 235.171C253.829 238.005 251.024 240.566 247.985 242.783L247.971 242.762C239.401 249.029 228.845 252.735 217.438 252.735C205.989 252.735 195.397 249.001 186.81 242.691L186.804 242.699C183.759 240.47 180.956 237.907 178.471 235.08L178.488 235.064C176.007 232.239 173.825 229.145 171.998 225.828L171.991 225.832C171.592 225.103 171.21 224.362 170.846 223.612C167.585 216.951 165.71 209.493 165.603 201.615H148.318V161.252H144V159.812H148.318L148.318 133.914H144V132.474H148.318V106.577H144V105.137H148.318V99.3555H144V97.915H148.318V37.4551H122.401V41.7754H120.961V37.4551L28.7998 37.4551V159.972C60.2878 236.888 134.318 286.575 217.44 286.575C300.558 286.575 374.588 236.886 406.079 159.974V37.4551L313.921 37.4551ZM149.758 37.4551L149.758 200.175H165.607C165.64 197.774 165.839 195.36 166.206 192.989L167.629 193.209C167.273 195.507 167.079 197.84 167.047 200.175L267.834 200.175C267.799 197.886 267.606 195.593 267.26 193.33L268.685 193.112C269.042 195.447 269.239 197.813 269.274 200.175H285.118L285.118 37.4551L149.758 37.4551ZM267.833 442.806C267.444 415.35 244.987 393.135 217.439 393.135C189.89 393.135 167.433 415.35 167.044 442.806H199.096C199.479 433.019 207.56 425.175 217.44 425.175C227.321 425.175 235.402 433.019 235.785 442.806H267.833ZM167.048 201.615C167.061 202.47 167.094 203.325 167.15 204.178H167.144C167.385 207.909 168.034 211.531 169.047 214.999L169.063 214.994C169.763 217.401 170.642 219.754 171.687 222.023C171.749 222.159 171.812 222.294 171.876 222.429C171.94 222.564 172.004 222.699 172.069 222.834C177.286 233.578 186.209 242.199 197.165 247.031L197.167 247.027C200.525 248.506 204.048 249.619 207.637 250.333V250.336C210.808 250.963 214.086 251.294 217.438 251.294C217.981 251.294 218.521 251.284 219.059 251.267C222.548 251.15 226.045 250.668 229.461 249.828C232.153 249.167 234.797 248.282 237.325 247.2C248.404 242.424 257.44 233.786 262.729 222.989C262.835 222.771 262.94 222.552 263.043 222.333C263.084 222.246 263.125 222.159 263.166 222.071C264.211 219.817 265.091 217.487 265.792 215.109L265.796 215.11C267.059 210.82 267.766 206.294 267.832 201.615L167.048 201.615ZM175.564 172.872C173.525 175.919 171.816 179.195 170.484 182.607L169.144 182.083C170.514 178.573 172.271 175.205 174.367 172.071L175.564 172.872ZM191.329 157.783C188.199 159.679 185.268 161.925 182.621 164.461L181.625 163.421C184.349 160.813 187.363 158.502 190.583 156.552L191.329 157.783ZM253.074 82.7051C253.074 102.353 237.087 118.338 217.437 118.338C197.788 118.338 181.802 102.353 181.802 82.7051V72.0088H183.242V82.7051C183.242 101.559 198.582 116.897 217.437 116.897C236.293 116.897 251.634 101.559 251.634 82.7051V72.0088L253.074 72.0088V82.7051ZM218.161 72.0166V74.9287C222.191 75.2946 225.359 78.6918 225.359 82.8154C225.359 87.1821 221.806 90.7352 217.439 90.7354C213.072 90.7354 209.518 87.1822 209.518 82.8154C209.518 78.6905 212.687 75.2928 216.721 74.9287V72.0166H191.519V70.5771H243.357V72.0166H218.161ZM234.343 442.806C233.961 433.813 226.526 426.615 217.44 426.615C208.354 426.615 200.919 433.813 200.537 442.806H234.343ZM212.01 150.796C209.805 151.038 207.589 151.431 205.422 151.963C204.027 152.306 202.636 152.711 201.286 153.165L200.826 151.8C202.214 151.332 203.644 150.916 205.078 150.564C207.307 150.017 209.587 149.613 211.854 149.364L212.01 150.796ZM223.919 82.8154C223.919 79.2375 221.018 76.3341 217.439 76.335C213.858 76.335 210.957 79.2374 210.957 82.8154C210.957 86.3912 213.859 89.2949 217.439 89.2949C221.018 89.2947 223.919 86.3921 223.919 82.8154ZM233.707 153.196C230.234 152.009 226.629 151.202 222.992 150.799L223.151 149.367C226.892 149.782 230.601 150.612 234.173 151.834L233.707 153.196ZM252.354 164.551C249.711 162.017 246.782 159.766 243.65 157.858L244.399 156.629C247.62 158.59 250.633 160.906 253.351 163.512L252.354 164.551ZM256.318 151.215V149.775H260.636V151.215H256.318ZM264.44 182.717C263.122 179.293 261.425 176.012 259.398 172.966L260.596 172.168C262.682 175.302 264.428 178.676 265.784 182.199L264.44 182.717Z" fill="black"/>
  </g>
</svg>
